<?xml version="1.0" encoding="UTF-8"?><svg xmlns="http://www.w3.org/2000/svg" xmlns:xlink="http://www.w3.org/1999/xlink" fill-opacity="1" color-rendering="auto" color-interpolation="auto" text-rendering="auto" stroke="black" stroke-linecap="square" width="1394" stroke-miterlimit="10" shape-rendering="auto" stroke-opacity="1" fill="black" stroke-dasharray="none" font-weight="normal" stroke-width="1" height="947" font-family="'Dialog'" font-style="normal" stroke-linejoin="miter" font-size="12px" stroke-dashoffset="0" image-rendering="auto">
  <!--Generated by ySVG 2.6-->
  <defs id="genericDefs"/>
  <g>
    <defs id="defs1">
      <clipPath clipPathUnits="userSpaceOnUse" id="clipPath1">
        <path d="M0 0 L1394 0 L1394 947 L0 947 L0 0 Z"/>
      </clipPath>
      <clipPath clipPathUnits="userSpaceOnUse" id="clipPath2">
        <path d="M745 130 L2139 130 L2139 1077 L745 1077 L745 130 Z"/>
      </clipPath>
    </defs>
    <g fill="white" text-rendering="geometricPrecision" shape-rendering="geometricPrecision" transform="translate(-745,-130)" stroke="white">
      <rect x="745" width="1394" height="947" y="130" clip-path="url(#clipPath2)" stroke="none"/>
    </g>
    <g text-rendering="geometricPrecision" stroke-miterlimit="1.45" shape-rendering="geometricPrecision" transform="matrix(1,0,0,1,-745,-130)" stroke-linecap="butt">
      <rect x="941.431" y="203.7527" clip-path="url(#clipPath2)" fill="none" width="137.6" rx="23.52" ry="23.52" height="47.04"/>
      <text x="989.2603" xml:space="preserve" y="231.9866" clip-path="url(#clipPath2)" font-family="sans-serif" stroke="none">Начало</text>
    </g>
    <g text-rendering="geometricPrecision" stroke-miterlimit="1.45" shape-rendering="geometricPrecision" transform="matrix(1,0,0,1,-745,-130)" stroke-linecap="butt">
      <path fill="none" d="M1182.4459 152.3727 L1152.0709 152.3727 L1152.0709 302.1727 L1182.4459 302.1727" clip-path="url(#clipPath2)"/>
      <text x="1157.5465" xml:space="preserve" y="173.1819" clip-path="url(#clipPath2)" font-family="sans-serif" stroke="none">Алгоритм трассировки лучей</text>
      <text x="1157.5465" xml:space="preserve" y="187.8831" clip-path="url(#clipPath2)" font-family="sans-serif" stroke="none">Вход: источник (origin) и </text>
      <text x="1157.5465" xml:space="preserve" y="202.5842" clip-path="url(#clipPath2)" font-family="sans-serif" stroke="none">направление (direction) луча, </text>
      <text x="1157.5465" xml:space="preserve" y="217.2854" clip-path="url(#clipPath2)" font-family="sans-serif" stroke="none">список объектов objects, </text>
      <text x="1157.5465" xml:space="preserve" y="231.9866" clip-path="url(#clipPath2)" font-family="sans-serif" stroke="none">позиция и интесивность источника света,</text>
      <text x="1157.5465" xml:space="preserve" y="246.6878" clip-path="url(#clipPath2)" font-family="sans-serif" stroke="none">глубина расчета отраженного луча,</text>
      <text x="1157.5465" xml:space="preserve" y="261.3889" clip-path="url(#clipPath2)" font-family="sans-serif" stroke="none">цвет фона</text>
      <text x="1157.5465" xml:space="preserve" y="276.0901" clip-path="url(#clipPath2)" font-family="sans-serif" stroke="none">Выход:</text>
      <text x="1157.5465" xml:space="preserve" y="290.7913" clip-path="url(#clipPath2)" font-family="sans-serif" stroke="none">Цвет пикселя</text>
    </g>
    <g text-rendering="geometricPrecision" stroke-miterlimit="1.45" shape-rendering="geometricPrecision" transform="matrix(1,0,0,1,-745,-130)" stroke-linecap="butt">
      <path fill="none" d="M1009.431 295.2327 L1095.8309 335.3927 L1009.431 375.5527 L923.0309 335.3927 Z" clip-path="url(#clipPath2)"/>
      <text x="948.9769" xml:space="preserve" y="332.756" clip-path="url(#clipPath2)" font-family="sans-serif" stroke="none">Глубина отраженного</text>
      <text x="979.4515" xml:space="preserve" y="347.4572" clip-path="url(#clipPath2)" font-family="sans-serif" stroke="none">луча &gt;= 0?</text>
    </g>
    <g text-rendering="geometricPrecision" stroke-miterlimit="1.45" shape-rendering="geometricPrecision" transform="matrix(1,0,0,1,-745,-130)" stroke-linecap="butt">
      <path fill="none" d="M924.631 419.5527 L1094.231 419.5527 L1094.231 484.9927 L924.631 484.9927 Z" clip-path="url(#clipPath2)"/>
      <text x="965.9105" xml:space="preserve" y="434.9348" clip-path="url(#clipPath2)" font-family="sans-serif" stroke="none">idx_closest := -1</text>
      <text x="969.2415" xml:space="preserve" y="449.636" clip-path="url(#clipPath2)" font-family="sans-serif" stroke="none">nearest_z := -1</text>
      <text x="962.5677" xml:space="preserve" y="464.3372" clip-path="url(#clipPath2)" font-family="sans-serif" stroke="none">hit_object := false</text>
      <text x="946.9495" xml:space="preserve" y="479.0383" clip-path="url(#clipPath2)" font-family="sans-serif" stroke="none">res_color := цвет фона</text>
    </g>
    <g text-rendering="geometricPrecision" stroke-miterlimit="1.45" shape-rendering="geometricPrecision" transform="matrix(1,0,0,1,-745,-130)" stroke-linecap="butt">
      <path fill="none" d="M933.831 513.3052 L1085.031 513.3052 L1095.031 523.3052 L1095.031 573.1451 L923.831 573.1451 L923.831 523.3052 Z" clip-path="url(#clipPath2)"/>
      <text x="971.5062" xml:space="preserve" y="540.5884" clip-path="url(#clipPath2)" font-family="sans-serif" stroke="none">Цикл по i от 1</text>
      <text x="950.7405" xml:space="preserve" y="555.2896" clip-path="url(#clipPath2)" font-family="sans-serif" stroke="none">до длина(objects) + 1</text>
    </g>
    <g text-rendering="geometricPrecision" stroke-miterlimit="1.45" shape-rendering="geometricPrecision" transform="matrix(1,0,0,1,-745,-130)" stroke-linecap="butt">
      <path fill="none" d="M1009.431 698.0577 L1095.8309 738.2177 L1009.431 778.3777 L923.0309 738.2177 Z" clip-path="url(#clipPath2)"/>
      <text x="962.723" xml:space="preserve" y="735.581" clip-path="url(#clipPath2)" font-family="sans-serif" stroke="none">Луч  пересекает </text>
      <text x="982.4163" xml:space="preserve" y="750.2822" clip-path="url(#clipPath2)" font-family="sans-serif" stroke="none">objects[i]?</text>
    </g>
    <g text-rendering="geometricPrecision" stroke-miterlimit="1.45" shape-rendering="geometricPrecision" transform="matrix(1,0,0,1,-745,-130)" stroke-linecap="butt">
      <path fill="none" d="M923.831 924.3527 L1095.031 924.3527 L1095.031 974.1927 L1085.031 984.1927 L933.831 984.1927 L923.831 974.1927 Z" clip-path="url(#clipPath2)"/>
      <text x="963.3411" xml:space="preserve" y="958.9866" clip-path="url(#clipPath2)" font-family="sans-serif" stroke="none">Конец цикла по i</text>
    </g>
    <g text-rendering="geometricPrecision" stroke-miterlimit="1.45" shape-rendering="geometricPrecision" transform="matrix(1,0,0,1,-745,-130)" stroke-linecap="butt">
      <path fill="none" d="M1095.8309 778.3777 L1265.431 778.3777 L1265.431 838.2177 L1095.8309 838.2177 Z" clip-path="url(#clipPath2)"/>
      <text x="1141.1124" xml:space="preserve" y="798.3104" clip-path="url(#clipPath2)" font-family="sans-serif" stroke="none">idx_closest := i</text>
      <text x="1136.1027" xml:space="preserve" y="813.0116" clip-path="url(#clipPath2)" font-family="sans-serif" stroke="none">hit_object := true</text>
      <text x="1127.7618" xml:space="preserve" y="827.7128" clip-path="url(#clipPath2)" font-family="sans-serif" stroke="none">nearest_t = object_t</text>
    </g>
    <g text-rendering="geometricPrecision" stroke-miterlimit="1.45" shape-rendering="geometricPrecision" transform="matrix(1,0,0,1,-745,-130)" stroke-linecap="butt">
      <path fill="none" d="M1563.3138 237.58 L1649.7139 277.74 L1563.3138 317.9 L1476.9138 277.74 Z" clip-path="url(#clipPath2)"/>
      <text x="1515.6185" xml:space="preserve" y="282.4539" clip-path="url(#clipPath2)" font-family="sans-serif" stroke="none">hitObject == true?</text>
    </g>
    <g text-rendering="geometricPrecision" stroke-miterlimit="1.45" shape-rendering="geometricPrecision" transform="matrix(1,0,0,1,-745,-130)" stroke-linecap="butt">
      <rect fill="none" x="1695.4739" width="169.6" height="59.84" y="398.2957" clip-path="url(#clipPath2)"/>
      <path fill="none" d="M1705.4739 398.2957 L1705.4739 458.1357 M1855.0739 398.2957 L1855.0739 458.1357 M1705.4739 398.2957 Z" clip-path="url(#clipPath2)"/>
      <text x="1735.0804" xml:space="preserve" y="410.8779" clip-path="url(#clipPath2)" font-family="sans-serif" stroke="none">lightningColor := </text>
      <text x="1717.6664" xml:space="preserve" y="425.579" clip-path="url(#clipPath2)" font-family="sans-serif" stroke="none">Расчет цвета(hitPoint, </text>
      <text x="1752.9222" xml:space="preserve" y="440.2802" clip-path="url(#clipPath2)" font-family="sans-serif" stroke="none">light_pos, </text>
      <text x="1708.2328" xml:space="preserve" y="454.9814" clip-path="url(#clipPath2)" font-family="sans-serif" stroke="none">background_color, objects)</text>
    </g>
    <g text-rendering="geometricPrecision" stroke-miterlimit="1.45" shape-rendering="geometricPrecision" transform="matrix(1,0,0,1,-745,-130)" stroke-linecap="butt">
      <path fill="none" d="M1780.2738 499.3483 L1866.6738 539.5083 L1780.2738 579.6683 L1693.8739 539.5083 Z" clip-path="url(#clipPath2)"/>
      <text x="1720.0717" xml:space="preserve" y="544.2222" clip-path="url(#clipPath2)" font-family="sans-serif" stroke="none">object[i].reflection &gt; 0?</text>
    </g>
    <g text-rendering="geometricPrecision" stroke-miterlimit="1.45" shape-rendering="geometricPrecision" transform="matrix(1,0,0,1,-745,-130)" stroke-linecap="butt">
      <rect fill="none" x="1950.9939" width="172.8" height="59.84" y="575.8283" clip-path="url(#clipPath2)"/>
      <path fill="none" d="M1960.9939 575.8283 L1960.9939 635.6683 M2113.7939 575.8283 L2113.7939 635.6683 M1960.9939 575.8283 Z" clip-path="url(#clipPath2)"/>
      <text x="1988.2015" xml:space="preserve" y="595.761" clip-path="url(#clipPath2)" font-family="sans-serif" stroke="none">reflection_color := </text>
      <text x="1961.3627" xml:space="preserve" y="610.4622" clip-path="url(#clipPath2)" font-family="sans-serif" stroke="none">TraceRay(hitPoint, lightPos, </text>
      <text x="2000.0463" xml:space="preserve" y="625.1633" clip-path="url(#clipPath2)" font-family="sans-serif" stroke="none">color, objects)</text>
    </g>
    <g text-rendering="geometricPrecision" stroke-miterlimit="1.45" shape-rendering="geometricPrecision" transform="matrix(1,0,0,1,-745,-130)" stroke-linecap="butt">
      <rect fill="none" x="1952.5939" width="169.6" height="59.84" y="685.8083" clip-path="url(#clipPath2)"/>
      <path fill="none" d="M1962.5939 685.8083 L1962.5939 745.6483 M2112.1938 685.8083 L2112.1938 745.6483 M1962.5939 685.8083 Z" clip-path="url(#clipPath2)"/>
      <text x="1966.7357" xml:space="preserve" y="705.741" clip-path="url(#clipPath2)" font-family="sans-serif" stroke="none">res_color := Перемешать </text>
      <text x="1977.6605" xml:space="preserve" y="720.4422" clip-path="url(#clipPath2)" font-family="sans-serif" stroke="none">цвета (lightningColor, </text>
      <text x="1996.7123" xml:space="preserve" y="735.1434" clip-path="url(#clipPath2)" font-family="sans-serif" stroke="none">reflectionColor)</text>
    </g>
    <g text-rendering="geometricPrecision" stroke-miterlimit="1.45" shape-rendering="geometricPrecision" transform="matrix(1,0,0,1,-745,-130)" stroke-linecap="butt">
      <path fill="none" d="M1478.5139 882.46 L1648.1139 882.46 L1648.1139 942.3 L1478.5139 942.3 Z" clip-path="url(#clipPath2)"/>
      <text x="1514.1068" xml:space="preserve" y="917.0939" clip-path="url(#clipPath2)" font-family="sans-serif" stroke="none">Вернуть res_color</text>
    </g>
    <g text-rendering="geometricPrecision" stroke-miterlimit="1.45" shape-rendering="geometricPrecision" transform="matrix(1,0,0,1,-745,-130)" stroke-linecap="butt">
      <rect fill="none" x="924.631" width="169.6" height="59.84" y="601.4576" clip-path="url(#clipPath2)"/>
      <path fill="none" d="M934.631 601.4576 L934.631 661.2975 M1084.231 601.4576 L1084.231 661.2975 M934.631 601.4576 Z" clip-path="url(#clipPath2)"/>
      <text x="979.9114" xml:space="preserve" y="621.3903" clip-path="url(#clipPath2)" font-family="sans-serif" stroke="none">object_t := </text>
      <text x="935.1575" xml:space="preserve" y="636.0914" clip-path="url(#clipPath2)" font-family="sans-serif" stroke="none">Поиск пересечения(origin, </text>
      <text x="957.7425" xml:space="preserve" y="650.7926" clip-path="url(#clipPath2)" font-family="sans-serif" stroke="none">direction, objects[i])</text>
    </g>
    <g text-rendering="geometricPrecision" stroke-miterlimit="1.45" shape-rendering="geometricPrecision" transform="matrix(1,0,0,1,-745,-130)" stroke-linecap="butt">
      <path fill="none" d="M1695.4739 305.4727 L1865.0739 305.4727 L1865.0739 365.3127 L1695.4739 365.3127 Z" clip-path="url(#clipPath2)"/>
      <text x="1730.2435" xml:space="preserve" y="332.756" clip-path="url(#clipPath2)" font-family="sans-serif" stroke="none">hitPoint := origin + </text>
      <text x="1728.2484" xml:space="preserve" y="347.4572" clip-path="url(#clipPath2)" font-family="sans-serif" stroke="none">direction * nearestT</text>
    </g>
    <g text-rendering="geometricPrecision" stroke-miterlimit="1.45" shape-rendering="geometricPrecision" transform="matrix(1,0,0,1,-745,-130)" stroke-linecap="butt">
      <rect fill="none" x="1693.8739" width="172.8" height="59.84" y="652.0871" clip-path="url(#clipPath2)"/>
      <path fill="none" d="M1703.8739 652.0871 L1703.8739 711.9271 M1856.6738 652.0871 L1856.6738 711.9271 M1703.8739 652.0871 Z" clip-path="url(#clipPath2)"/>
      <text x="1731.0814" xml:space="preserve" y="672.0198" clip-path="url(#clipPath2)" font-family="sans-serif" stroke="none">reflection_color := </text>
      <text x="1704.2426" xml:space="preserve" y="686.7209" clip-path="url(#clipPath2)" font-family="sans-serif" stroke="none">TraceRay(hitPoint, lightPos, </text>
      <text x="1742.9261" xml:space="preserve" y="701.4221" clip-path="url(#clipPath2)" font-family="sans-serif" stroke="none">color, objects)</text>
    </g>
    <g text-rendering="geometricPrecision" stroke-miterlimit="1.45" shape-rendering="geometricPrecision" transform="matrix(1,0,0,1,-745,-130)" stroke-linecap="butt">
      <rect x="1494.5139" y="1000.3947" clip-path="url(#clipPath2)" fill="none" width="137.6" rx="23.52" ry="23.52" height="47.04"/>
      <text x="1546.3949" xml:space="preserve" y="1028.6285" clip-path="url(#clipPath2)" font-family="sans-serif" stroke="none">Конец</text>
    </g>
    <g text-rendering="geometricPrecision" stroke-miterlimit="1.45" shape-rendering="geometricPrecision" transform="matrix(1,0,0,1,-745,-130)" stroke-linecap="butt">
      <ellipse rx="23.2492" fill="none" ry="23.52" clip-path="url(#clipPath2)" cx="1009.431" cy="1037.7127"/>
    </g>
    <g text-rendering="geometricPrecision" stroke-miterlimit="1.45" shape-rendering="geometricPrecision" font-family="sans-serif" transform="matrix(1,0,0,1,-745,-130)" stroke-linecap="butt">
      <text x="1005.429" xml:space="preserve" y="1042.4266" clip-path="url(#clipPath2)" stroke="none">А</text>
      <ellipse rx="23.2492" fill="none" ry="23.52" clip-path="url(#clipPath2)" cx="783.7658" cy="1037.7127"/>
      <text x="779.8283" xml:space="preserve" y="1042.4266" clip-path="url(#clipPath2)" stroke="none">Б</text>
      <ellipse rx="23.2492" fill="none" ry="23.52" clip-path="url(#clipPath2)" cx="1563.3139" cy="169.4721"/>
      <text x="1559.3119" xml:space="preserve" y="174.186" clip-path="url(#clipPath2)" stroke="none">А</text>
      <ellipse rx="23.2492" fill="none" ry="23.52" clip-path="url(#clipPath2)" cx="1436.9763" cy="169.4721"/>
      <text x="1433.0387" xml:space="preserve" y="174.186" clip-path="url(#clipPath2)" stroke="none">Б</text>
      <path fill="none" stroke-dasharray="6,2" d="M1079.0555 227.2727 L1152.0463 227.2727" clip-path="url(#clipPath2)"/>
      <path fill="none" d="M1010.231 250.775 L1010.231 281.1727 L1010.071 281.1727 L1010.071 287.5484" clip-path="url(#clipPath2)"/>
      <path d="M1010.071 295.5484 L1015.071 283.5484 L1010.071 286.5484 L1005.071 283.5484 Z" clip-path="url(#clipPath2)" stroke="none"/>
      <path fill="none" d="M1009.431 375.5417 L1009.431 411.5646" clip-path="url(#clipPath2)"/>
      <path d="M1009.431 419.5646 L1014.431 407.5646 L1009.431 410.5646 L1004.431 407.5646 Z" clip-path="url(#clipPath2)" stroke="none"/>
      <text x="1032.0306" xml:space="preserve" y="394.6172" clip-path="url(#clipPath2)" stroke="none">Да</text>
      <path fill="none" d="M1009.431 485.0031 L1009.431 505.2897" clip-path="url(#clipPath2)"/>
      <path d="M1009.431 513.2897 L1014.431 501.2897 L1009.431 504.2897 L1004.431 501.2897 Z" clip-path="url(#clipPath2)" stroke="none"/>
      <path fill="none" d="M1009.431 778.3852 L1009.431 916.3427" clip-path="url(#clipPath2)"/>
      <path d="M1009.431 924.3427 L1014.431 912.3427 L1009.431 915.3427 L1004.431 912.3427 Z" clip-path="url(#clipPath2)" stroke="none"/>
      <text x="969.013" xml:space="preserve" y="797.4422" clip-path="url(#clipPath2)" stroke="none">Нет</text>
      <path fill="none" d="M1095.8251 738.2177 L1180.631 738.2177 L1180.631 770.3563" clip-path="url(#clipPath2)"/>
      <path d="M1180.631 778.3563 L1185.631 766.3563 L1180.631 769.3563 L1175.631 766.3563 Z" clip-path="url(#clipPath2)" stroke="none"/>
      <text x="1105.3584" xml:space="preserve" y="725.7111" clip-path="url(#clipPath2)" stroke="none">Да</text>
      <path fill="none" d="M1180.631 838.2512 L1180.631 878.2462 L1017.431 878.2462" clip-path="url(#clipPath2)"/>
      <path d="M1009.431 878.2462 L1021.431 883.2462 L1018.431 878.2462 L1021.431 873.2462 Z" clip-path="url(#clipPath2)" stroke="none"/>
      <path fill="none" d="M1780.2738 458.1311 L1780.2738 491.3362" clip-path="url(#clipPath2)"/>
      <path d="M1780.2738 499.3362 L1785.2738 487.3362 L1780.2738 490.3362 L1775.2738 487.3362 Z" clip-path="url(#clipPath2)" stroke="none"/>
      <path fill="none" d="M1866.6815 539.5083 L2037.3939 539.5083 L2037.3939 567.8303" clip-path="url(#clipPath2)"/>
      <path d="M2037.3939 575.8303 L2042.3939 563.8303 L2037.3939 566.8303 L2032.3939 563.8303 Z" clip-path="url(#clipPath2)" stroke="none"/>
      <text x="1873.6738" xml:space="preserve" y="514.2222" clip-path="url(#clipPath2)" stroke="none">Да</text>
      <path fill="none" d="M1563.3138 317.898 L1563.3138 806.2134 L1918.21 806.2134 L1918.21 774.2742" clip-path="url(#clipPath2)"/>
      <text x="1522.8959" xml:space="preserve" y="336.9644" clip-path="url(#clipPath2)" stroke="none">Нет</text>
      <path fill="none" d="M2037.3939 635.6867 L2037.3939 677.83" clip-path="url(#clipPath2)"/>
      <path d="M2037.3939 685.83 L2042.3939 673.83 L2037.3939 676.83 L2032.3939 673.83 Z" clip-path="url(#clipPath2)" stroke="none"/>
      <path fill="none" d="M1742.1387 805.7866 L1742.1387 849.6856 L1563.3138 849.6856 L1563.3138 874.4716" clip-path="url(#clipPath2)"/>
      <path d="M1563.3138 882.4716 L1568.3138 870.4716 L1563.3138 873.4716 L1558.3138 870.4716 Z" clip-path="url(#clipPath2)" stroke="none"/>
      <path fill="none" d="M1009.431 573.1401 L1009.431 593.4342" clip-path="url(#clipPath2)"/>
      <path d="M1009.431 601.4342 L1014.431 589.4342 L1009.431 592.4342 L1004.431 589.4342 Z" clip-path="url(#clipPath2)" stroke="none"/>
      <path fill="none" d="M1009.431 661.296 L1009.431 690.0667" clip-path="url(#clipPath2)"/>
      <path d="M1009.431 698.0667 L1014.431 686.0667 L1009.431 689.0667 L1004.431 686.0667 Z" clip-path="url(#clipPath2)" stroke="none"/>
      <path fill="none" d="M1649.7324 277.74 L1780.2738 277.74 L1780.2738 297.4685" clip-path="url(#clipPath2)"/>
      <path d="M1780.2738 305.4685 L1785.2738 293.4685 L1780.2738 296.4685 L1775.2738 293.4685 Z" clip-path="url(#clipPath2)" stroke="none"/>
      <text x="1656.7139" xml:space="preserve" y="252.4539" clip-path="url(#clipPath2)" stroke="none">Да</text>
      <path fill="none" d="M1780.2738 365.3517 L1780.2738 390.2878" clip-path="url(#clipPath2)"/>
      <path d="M1780.2738 398.2878 L1785.2738 386.2878 L1780.2738 389.2878 L1775.2738 386.2878 Z" clip-path="url(#clipPath2)" stroke="none"/>
      <path fill="none" d="M1780.2738 579.6904 L1780.2738 644.0815" clip-path="url(#clipPath2)"/>
      <path d="M1780.2738 652.0815 L1785.2738 640.0815 L1780.2738 643.0815 L1775.2738 640.0815 Z" clip-path="url(#clipPath2)" stroke="none"/>
      <text x="1739.8558" xml:space="preserve" y="598.7328" clip-path="url(#clipPath2)" stroke="none">Нет</text>
      <path fill="none" d="M1780.2738 711.9248 L1780.2738 774.1447 L2038.4075 774.1447 L2038.4075 746.1372" clip-path="url(#clipPath2)"/>
      <path fill="none" d="M1563.3138 942.306 L1563.3138 992.3645" clip-path="url(#clipPath2)"/>
      <path d="M1563.3138 1000.3645 L1568.3138 988.3645 L1563.3138 991.3645 L1558.3138 988.3645 Z" clip-path="url(#clipPath2)" stroke="none"/>
      <path fill="none" d="M1009.431 984.2182 L1009.431 1006.1927" clip-path="url(#clipPath2)"/>
      <path d="M1009.431 1014.1927 L1014.431 1002.1927 L1009.431 1005.1927 L1004.431 1002.1927 Z" clip-path="url(#clipPath2)" stroke="none"/>
      <path fill="none" d="M923.016 335.3927 L783.7658 335.3927 L783.7658 1006.1927" clip-path="url(#clipPath2)"/>
      <path d="M783.7658 1014.1927 L788.7658 1002.1927 L783.7658 1005.1927 L778.7658 1002.1927 Z" clip-path="url(#clipPath2)" stroke="none"/>
      <text x="895.195" xml:space="preserve" y="310.1066" clip-path="url(#clipPath2)" stroke="none">Нет</text>
      <path fill="none" d="M1563.3138 192.9921 L1563.3138 229.5592" clip-path="url(#clipPath2)"/>
      <path d="M1563.3138 237.5592 L1568.3138 225.5592 L1563.3138 228.5592 L1558.3138 225.5592 Z" clip-path="url(#clipPath2)" stroke="none"/>
      <path fill="none" d="M1436.9762 192.9921 L1436.9762 849.6856 L1563.3138 849.6856 L1563.3138 874.4716" clip-path="url(#clipPath2)"/>
      <path d="M1563.3138 882.4716 L1568.3138 870.4716 L1563.3138 873.4716 L1558.3138 870.4716 Z" clip-path="url(#clipPath2)" stroke="none"/>
    </g>
  </g>
</svg>
